<?xml version="1.0" encoding="utf-8"?>
<!-- Generator: Adobe Illustrator 26.0.0, SVG Export Plug-In . SVG Version: 6.00 Build 0)  -->
<svg version="1.1" id="Layer_1" xmlns="http://www.w3.org/2000/svg" xmlns:xlink="http://www.w3.org/1999/xlink" x="0px" y="0px"
	 viewBox="0 0 518.9 112.8" style="enable-background:new 0 0 518.9 112.8;" xml:space="preserve">
<style type="text/css">
	.st0{fill:#FFFFFF;}
</style>
<g>
	<path class="st0" d="M119,15.3c-0.4-1.2-1-2.4-1.8-3.4c-0.7-1.1-1.5-2.1-2.4-3c-0.9-0.9-1.9-1.7-3-2.4c-1.1-0.7-2.3-1.3-3.4-1.8
		c-1.1-0.5-2.4-0.8-3.6-1.1c-1.2-0.3-2.5-0.4-3.8-0.4H29.5c-1.3,0-2.5,0.1-3.8,0.4c-1.2,0.3-2.4,0.6-3.6,1.1
		c-1.2,0.4-2.4,1.1-3.4,1.8c-1.1,0.7-2.1,1.5-3,2.4c-0.9,0.9-1.7,1.9-2.4,3c-0.7,1.1-1.3,2.3-1.8,3.4c-0.5,1.1-0.8,2.4-1.1,3.6
		S10,21.4,10,22.7v67.4c0,1.4,0.1,2.6,0.4,3.8c0.3,1.2,0.6,2.4,1.1,3.6c0.4,1.2,1.1,2.4,1.8,3.4c0.7,1.1,1.5,2.1,2.4,3
		c0.9,0.9,1.9,1.7,3,2.4c1.1,0.7,2.2,1.3,3.4,1.8c1.1,0.5,2.4,0.8,3.6,1.1c1.2,0.3,2.5,0.4,3.8,0.4h71.3c1.3,0,2.5-0.1,3.8-0.4
		c1.2-0.3,2.4-0.6,3.6-1.1c1.2-0.4,2.4-1.1,3.4-1.8c1.1-0.7,2.1-1.5,3-2.4c0.9-0.9,1.7-1.9,2.4-3c0.7-1.1,1.3-2.2,1.8-3.4
		c0.5-1.1,0.8-2.4,1.1-3.6c0.3-1.2,0.4-2.5,0.4-3.8V22.7c0-1.3-0.1-2.5-0.4-3.8C119.8,17.7,119.5,16.5,119,15.3z M65.1,74.6
		c-1.6,2.1-3.6,3.9-6.3,5c-2.7,1.1-5.9,1.7-9.7,1.7c-2.7,0-5.2-0.3-7.4-0.7c-2.2-0.4-4.1-1.1-5.6-1.8c-0.4-0.2-0.6-0.7-0.6-1.2v-8.7
		c0-0.2,0.1-0.3,0.2-0.4c0.1-0.1,0.3-0.1,0.4,0.1c2.1,1.3,4.2,2.2,6.5,2.9c2.3,0.7,4.5,0.9,6.7,0.9c2.8,0,4.8-0.4,6-1.3
		c1.2-0.8,1.8-1.9,1.8-3.2c0-0.8-0.2-1.6-0.6-2.2c-0.4-0.7-1.1-1.3-2.1-1.9c-1-0.7-2.3-1.3-4-1.9l-3.6-1.6c-3-1.3-5.3-2.6-7-4.1
		c-1.7-1.4-2.9-3-3.4-4.6c-0.7-1.6-1-3.4-1-5.4c0-2.6,0.7-5.1,1.9-7.1c1.4-2.1,3.2-3.9,5.8-5.1c2.6-1.2,5.8-1.8,9.7-1.8
		c2.3,0,4.5,0.1,6.6,0.4c2,0.3,3.6,0.8,4.8,1.4c0.4,0.2,0.5,0.5,0.5,0.9v8.3c0,0.1-0.1,0.2-0.2,0.3c-0.1,0.1-0.3,0.1-0.4-0.1
		c-1.4-0.8-3.2-1.4-5.1-1.8c-1.9-0.3-4-0.5-6.1-0.5c-1.4,0-2.6,0.1-3.6,0.4c-1,0.3-1.8,0.6-2.4,0.9c-0.6,0.4-1.1,0.8-1.4,1.4
		c-0.3,0.6-0.4,1.1-0.4,1.7c0,0.8,0.2,1.5,0.7,2.1c0.4,0.7,1.2,1.2,2.2,1.8c1,0.7,2.4,1.4,4.2,2.1l2.7,1c3.2,1.4,5.7,2.7,7.5,4.2
		c1.8,1.5,3.1,3.1,3.8,4.8c0.7,1.8,1.1,3.6,1.1,5.6C67.4,69.9,66.6,72.4,65.1,74.6z M92.4,52.2c0,0.3-0.1,0.4-0.4,0.5h-6.9v15.6
		c0,1.6,0.3,2.9,0.8,3.6c0.6,0.7,1.6,1.1,3.1,1.1c0.4,0,0.8,0,1.2-0.1c0.4,0,0.8-0.1,1.2-0.1c0.1-0.1,0.3-0.1,0.4,0.1
		C92,73,92,73.1,92,73.3v6c0,0.5-0.2,0.8-0.6,0.9c-0.9,0.3-1.9,0.5-2.9,0.7c-1,0.2-2.2,0.3-3.5,0.3c-3.2,0-5.6-0.8-7.5-2.5
		c-1.8-1.6-2.7-4.3-2.7-8v-18h-4.3c-0.4,0-0.6-0.2-0.6-0.7v-7.3c0-0.4,0.2-0.6,0.7-0.6H75c0.1-0.8,0.1-1.8,0.2-2.9
		c0.1-1.1,0.1-2.2,0.3-3.3c0.1-1.1,0.2-2,0.3-2.7c0.1-0.1,0.1-0.3,0.2-0.4c0.1-0.1,0.2-0.2,0.4-0.3l8.7-1.1c0.1-0.1,0.3-0.1,0.4,0
		c0.1,0.1,0.1,0.2,0.1,0.4c-0.1,1.1-0.1,2.6-0.2,4.6c-0.1,1.9-0.1,3.8-0.1,5.6H92c0.3,0,0.4,0.2,0.4,0.6V52.2z"/>
	<path class="st0" d="M173.2,34.6c-0.1-0.3-0.2-0.4-0.6-0.4h-11c-0.3,0-0.4,0.1-0.4,0.5c0,1.4-0.1,2.3-0.2,2.9
		c-0.2,0.6-0.3,0.9-0.4,1.4l-13.7,39.5c-0.1,0.4,0.1,0.7,0.6,0.7h7.8c0.4,0,0.7-0.1,0.8-0.6l3.3-10.1h15.8l3.5,10.3
		c0.1,0.4,0.3,0.5,0.7,0.5h8.9c0.4,0,0.5-0.2,0.4-0.7L173.2,34.6z M161.9,59.9c0.7-1.8,1.3-3.9,1.9-5.9c0.7-2.1,1.3-4.2,1.9-6.3
		c0.5-2,1-3.8,1.4-5.4h0.1c0.3,1,0.5,2.1,0.9,3.3c0.3,1.1,0.7,2.4,1.1,3.7c0.4,1.3,0.8,2.6,1.2,3.9c0.4,1.3,0.7,2.5,1.1,3.6
		s0.8,2.1,1,3.1H161.9z"/>
	<path class="st0" d="M221.7,71.4V30.9c0-0.3-0.2-0.4-0.4-0.4h-8.6c-0.4,0-0.5,0.1-0.5,0.5v13.5c-0.6,0-0.9-0.1-1.3-0.1
		c-0.3,0-0.6,0-1,0c-4.1,0-7.7,0.8-10.7,2.4c-3.1,1.7-5.3,3.8-6.9,6.6c-1.6,2.6-2.4,5.6-2.4,9c0,3.9,0.8,7.2,2.4,9.8
		c1.6,2.5,3.6,4.5,6.4,5.8c2.8,1.3,5.8,1.9,9.2,1.9c2.2,0,4.4-0.3,6.5-0.7c2.3-0.4,4.6-1.1,7-2.1c0.4-0.1,0.5-0.3,0.5-0.7
		c-0.1-0.7-0.1-1.4-0.2-2.4C221.7,73,221.7,72.2,221.7,71.4z M212.3,71.2c-0.5,0.1-1,0.4-1.5,0.3c-0.6,0.1-1.1,0.1-1.7,0.1
		c-1.3,0-2.5-0.1-3.6-0.6c-1.1-0.4-2.1-1-2.9-1.8c-0.8-0.7-1.4-1.8-1.9-3c-0.4-1.2-0.7-2.6-0.7-4.3c0-2.2,0.5-4,1.4-5.4
		c0.8-1.4,2.2-2.4,3.6-3.1c1.5-0.7,3.1-1.1,4.8-1.1c0.4,0,0.8,0,1.4,0.1c0.4,0,0.8,0.1,1.1,0.2V71.2z"/>
	<path class="st0" d="M256.8,49.7c-1.4-1.6-3.2-2.9-5.2-3.9c-2.1-0.9-4.5-1.4-7.3-1.4c-3.5,0-6.5,0.8-9.1,2.5
		c-2.6,1.6-4.6,3.7-5.9,6.4c-1.4,2.7-2.1,5.6-2.1,8.8c0,2.3,0.4,4.4,1.1,6.5c0.6,2.1,1.7,4,3.1,5.7c1.4,1.7,3.1,3.1,5.3,4
		c2.2,1,4.6,1.6,7.6,1.6c3.4,0,6.3-0.7,8.8-2.3c2.5-1.5,4.5-3.5,5.9-6.3c1.5-2.7,2.2-5.8,2.2-9.3c0-2.4-0.4-4.5-1.1-6.6
		C259.3,53.2,258.1,51.4,256.8,49.7z M250.4,67.4c-0.6,1.5-1.4,2.6-2.5,3.3c-1.1,0.7-2.3,1.1-3.6,1.1c-1.6,0-2.9-0.4-4-1.2
		c-1.2-0.8-2-2-2.6-3.4c-0.6-1.5-0.9-3.2-0.9-5.2c0-2.1,0.3-3.9,0.9-5.3c0.7-1.5,1.4-2.6,2.5-3.3c1.1-0.7,2.3-1.1,3.6-1.1
		c1.8,0,3.3,0.4,4.4,1.3c1.1,0.8,1.8,2.2,2.4,3.6c0.5,1.4,0.7,3.1,0.7,4.9C251.4,64.2,251,65.9,250.4,67.4z"/>
	<path class="st0" d="M290.5,46.5c-2.4-1.5-5.4-2.2-8.8-2.2c-1,0-1.9,0.1-2.9,0.2c-1,0.1-1.9,0.3-2.9,0.6v-14c0-0.4-0.1-0.6-0.7-0.6
		h-8.4c-0.3,0-0.4,0.1-0.4,0.5v46.4c0,0.3,0.2,0.6,0.4,0.7c1.7,0.6,3.5,1,5.3,1.2c1.8,0.3,3.6,0.4,5.4,0.4c2.6,0,5.1-0.4,7.6-1.2
		c2.5-0.8,4.7-2,6.6-3.6c1.9-1.6,3.5-3.5,4.6-5.9c1.1-2.4,1.7-5.2,1.7-8.3c0-3.1-0.6-5.8-2-8.3C294.8,50,292.9,48,290.5,46.5z
		 M287,67.5c-0.9,1.5-2.2,2.6-3.6,3.3c-1.4,0.7-3.1,1.1-4.8,1.1c-0.3,0-0.8,0-1.3-0.1c-0.5-0.1-0.8-0.1-1.3-0.2V53
		c0.5-0.2,1-0.3,1.6-0.4c0.6-0.1,1.4-0.1,2.5-0.1c1.5,0,3,0.3,4.3,1c1.3,0.7,2.3,1.6,3,3c0.7,1.4,1.1,3.1,1.1,5.1
		C288.5,63.9,288,65.9,287,67.5z"/>
	<path class="st0" d="M329.6,49.1c-1.2-1.6-2.7-2.6-4.6-3.6c-1.8-0.8-4-1.3-6.6-1.3c-2.6,0-5.2,0.4-7.1,1.4c-2.2,1-3.9,2.3-5.2,4
		c-1.4,1.6-2.4,3.6-3.1,5.8c-0.7,2.2-1.1,4.5-1.1,6.9c0,2.1,0.3,4.3,0.9,6.3c0.7,2.1,1.6,3.9,3,5.6c1.4,1.6,3.1,3,5.4,4
		c2.3,1,4.9,1.6,8.2,1.6c2.4,0,4.3-0.1,6-0.5c1.6-0.3,3.2-0.8,4.5-1.4c0.3-0.1,0.3-0.3,0.4-0.4s0.1-0.3,0.1-0.5v-6.5
		c0-0.5-0.2-0.5-0.4-0.4c-1.3,0.6-2.7,1-4,1.2c-1.3,0.3-2.8,0.4-4.3,0.4c-2.1,0-4-0.3-5.4-1s-2.4-1.5-3.1-2.6
		c-0.7-1.1-1.1-2.3-1.3-3.6h13.5c1.2,0,2.3,0,3.1-0.1c1,0,1.8,0,2.4-0.1c0.6-0.1,1-0.1,1.4-0.1c0.3-0.1,0.5-0.2,0.6-0.6
		c0.1-0.4,0.1-0.8,0.2-1.8s0.1-1.8,0.1-2.9c0-1.6-0.3-3.4-0.8-5.1C331.6,52.1,330.7,50.5,329.6,49.1z M324.1,57.6c0,0.1,0,0.1,0,0.2
		c-0.1,0-0.5,0.1-1,0.1c-0.5,0-1.3,0-2.4,0h-9.1c0.2-1,0.5-1.9,1-2.8c0.5-0.9,1.1-1.6,2.1-2.3c1-0.6,2.1-0.9,3.5-0.9
		c1.2,0,2.2,0.1,2.9,0.6c0.7,0.4,1.3,0.9,1.8,1.6c0.5,0.6,0.8,1.2,1,1.8c0.1,0.6,0.2,1.1,0.2,1.6C324.1,57.5,324.1,57.5,324.1,57.6z
		"/>
	<path class="st0" d="M376.8,56.9c-1.6-1.4-4-2.8-7.1-4l-2.5-1.1c-1.7-0.7-3-1.4-4-1.9c-0.9-0.7-1.6-1.2-2-1.8s-0.6-1.2-0.6-1.9
		c0-0.5,0.2-1,0.4-1.6c0.2-0.5,0.7-0.8,1.2-1.3c0.6-0.4,1.3-0.7,2.2-0.9c1-0.3,2.1-0.4,3.3-0.4c2.1,0,3.9,0.1,5.8,0.6
		c1.8,0.3,3.4,0.9,4.8,1.7c0.2,0.1,0.3,0.1,0.4,0c0.1-0.2,0.1-0.3,0.1-0.4v-7.7c0-0.4-0.2-0.8-0.4-0.9c-1.2-0.7-2.7-1.1-4.6-1.4
		c-1.9-0.3-3.9-0.4-6.1-0.4c-3.7,0-6.6,0.6-9.1,1.8s-4.3,2.8-5.5,4.8c-1.2,2-1.8,4.3-1.8,6.7c0,1.8,0.3,3.5,0.9,5.2
		c0.6,1.6,1.8,3,3.3,4.3c1.6,1.3,3.8,2.5,6.6,3.8l3.4,1.4c1.6,0.6,2.8,1.2,3.7,1.8c0.8,0.6,1.5,1.2,1.9,1.8c0.4,0.6,0.6,1.3,0.6,2
		c0,1.2-0.6,2.2-1.7,3c-1.1,0.8-3.1,1.2-5.6,1.2c-2.2,0-4.2-0.4-6.3-0.9c-2.1-0.6-4.1-1.5-6.1-2.7c-0.2-0.1-0.4-0.1-0.4,0
		s-0.1,0.3-0.1,0.4v8.2c0,0.6,0.1,1,0.5,1.1c1.5,0.7,3.1,1.4,5.3,1.8c2.1,0.4,4.4,0.7,6.9,0.7c3.6,0,6.6-0.6,9.1-1.4
		c2.5-1.1,4.5-2.7,5.9-4.7c1.4-2,2.1-4.4,2.1-7.1c0-1.8-0.4-3.5-1.1-5.1C379.6,59.8,378.5,58.2,376.8,56.9z"/>
	<path class="st0" d="M404,45h-6.4c0-1.7,0.1-3.5,0.1-5.3c0.1-1.8,0.1-3.2,0.2-4.3c0-0.3-0.1-0.3-0.1-0.4c-0.1-0.1-0.3-0.1-0.4,0
		l-8,1c-0.2,0.1-0.3,0.1-0.4,0.2c-0.1,0.1-0.1,0.3-0.2,0.4c-0.1,0.6-0.3,1.4-0.4,2.4c-0.1,0.9-0.1,2-0.2,3.1c-0.1,1.1-0.1,2-0.1,2.8
		h-4.1c-0.4,0-0.7,0.2-0.7,0.7v6.7c0,0.4,0.1,0.6,0.6,0.7h4.1v17c0,3.4,0.8,5.9,2.4,7.5c1.6,1.6,4,2.4,7,2.4c1.3,0,2.3-0.1,3.3-0.2
		c0.9-0.1,1.9-0.3,2.9-0.7c0.4-0.1,0.5-0.4,0.5-0.9v-5.7c0-0.2,0.1-0.5,0.1-0.5c-0.1-0.1-0.2-0.1-0.4-0.1c-0.4,0.1-0.8,0.1-1.1,0.2
		c-0.3,0.1-0.7,0.1-1.1,0.1c-1.5,0-2.4-0.4-2.9-1.1c-0.6-0.8-0.8-1.8-0.8-3.3V52.9h6.4c0.4-0.1,0.5-0.3,0.5-0.5v-6.9
		C404.5,45.1,404.4,45,404,45z"/>
	<path class="st0" d="M436.3,49.7c-1.4-1.6-3.2-2.9-5.2-3.9c-2.1-0.9-4.5-1.4-7.3-1.4c-3.5,0-6.5,0.8-9.1,2.5
		c-2.6,1.6-4.5,3.7-5.9,6.4s-2.1,5.6-2.1,8.8c0,2.3,0.4,4.4,1.1,6.5c0.6,2.1,1.7,4,3.1,5.7s3.1,3.1,5.3,4c2.2,1,4.6,1.6,7.6,1.6
		c3.4,0,6.3-0.7,8.8-2.3c2.5-1.5,4.5-3.5,5.9-6.3c1.5-2.7,2.2-5.8,2.2-9.3c0-2.4-0.4-4.5-1.1-6.6C438.8,53.2,437.7,51.4,436.3,49.7z
		 M430,67.4c-0.6,1.5-1.4,2.6-2.5,3.3c-1.1,0.7-2.3,1.1-3.6,1.1c-1.6,0-2.9-0.4-4-1.2c-1.2-0.8-2-1.9-2.6-3.4
		c-0.6-1.5-0.9-3.2-0.9-5.2c0-2.1,0.3-3.9,0.9-5.3c0.7-1.5,1.4-2.6,2.5-3.3c1.1-0.7,2.3-1.1,3.6-1.1c1.8,0,3.3,0.4,4.4,1.3
		c1.1,0.8,1.8,2.2,2.4,3.6c0.5,1.4,0.7,3.1,0.7,4.9C430.9,64.2,430.5,66,430,67.4z"/>
	<path class="st0" d="M469.8,70.8c-0.6,0.2-1.4,0.3-2.4,0.4c-1,0.1-2.1,0.1-3.3,0.1c-1.6,0-3.1-0.4-4.7-0.9c-1.6-0.7-2.9-1.6-3.9-3
		c-1-1.4-1.6-3.3-1.6-5.6c0-2.2,0.3-3.9,1.3-5.2c0.8-1.4,2.2-2.4,3.6-3.1c1.5-0.7,3.2-1.1,5.1-1.1c1.2,0,2.4,0.1,3.3,0.2
		c1,0.1,1.8,0.4,2.4,0.7c0.4,0.1,0.6-0.1,0.6-0.5l0.1-7.1c0-0.3-0.2-0.6-0.4-0.7c-0.5-0.2-1.3-0.4-2.3-0.6c-1-0.1-2.3-0.2-4-0.2
		c-3.9,0-7.3,0.8-10.2,2.4c-2.9,1.6-5.1,3.7-6.7,6.4s-2.4,5.8-2.4,9.2c0,2.5,0.5,4.9,1.3,7c0.8,2.2,2.1,4.1,3.6,5.6
		c1.6,1.6,3.5,2.8,5.7,3.7c2.2,0.8,4.7,1.3,7.5,1.3c1.3,0,2.8-0.1,4.1-0.2c1.3-0.2,2.5-0.4,3.6-0.9c0.3-0.1,0.4-0.3,0.4-0.6V71
		C470.4,70.6,470.2,70.6,469.8,70.8z"/>
	<path class="st0" d="M508.8,78.5c-1-1.2-2.2-2.6-3.5-4.2c-1.3-1.5-2.6-3.1-4-4.8s-2.7-3.2-3.9-4.8c-1.2-1.6-2.4-3-3.3-4.2
		c-0.1-0.1-0.1-0.1-0.1-0.1c0-0.1,0-0.1,0.1-0.1c0.5-0.6,1.2-1.4,2.1-2.4s1.8-2.2,2.9-3.3c1-1.1,2.1-2.4,3.1-3.5
		c1.1-1.2,2.1-2.2,2.9-3.1c0.8-0.9,1.4-1.6,1.9-2.2c0.1-0.1,0.2-0.4,0.1-0.5c-0.1-0.1-0.3-0.2-0.5-0.2h-8.8c-0.3,0-0.4,0.1-0.6,0.1
		c-0.1,0-0.3,0.2-0.4,0.4c-0.4,0.3-0.8,1-1.6,2c-0.9,1-1.7,2.1-2.7,3.3c-0.9,1.2-2,2.4-3.1,3.7s-2,2.4-3,3.6
		c-0.3,0.4-0.6,0.8-0.9,1.1V31.1c0-0.4-0.3-0.6-0.7-0.6h-8.2c-0.3,0-0.5,0.1-0.6,0.1c-0.1,0.2-0.1,0.3-0.1,0.4v47.3
		c0,0.4,0.1,0.7,0.7,0.7h8.3c0.4,0,0.7-0.1,0.7-0.7V63.8c0.4,0.5,0.9,1.1,1.4,1.8c1.1,1.5,2.4,3.1,3.6,4.8c1.4,1.7,2.6,3.4,3.7,4.8
		c1.2,1.5,2,2.5,2.6,3.3c0.2,0.3,0.3,0.3,0.4,0.4s0.3,0.1,0.5,0.1h10.8c0.2,0,0.3-0.1,0.4-0.2C508.9,78.7,508.9,78.6,508.8,78.5z"/>
</g>
</svg>
